<svg width="17" height="11" viewBox="0 0 17 11" fill="none" xmlns="http://www.w3.org/2000/svg">
<path d="M16.1667 0.187541C16.6154 0.187541 16.9792 0.551309 16.9792 1.00004C16.9792 1.44877 16.6154 1.81254 16.1667 1.81254V0.187541ZM1 1.81254C0.551268 1.81254 0.1875 1.44877 0.1875 1.00004C0.1875 0.551309 0.551268 0.187541 1 0.187541V1.81254ZM16.1667 4.52087C16.6154 4.52087 16.9792 4.88464 16.9792 5.33337C16.9792 5.78211 16.6154 6.14587 16.1667 6.14587V4.52087ZM3.16667 6.14587C2.71794 6.14587 2.35417 5.78211 2.35417 5.33337C2.35417 4.88464 2.71794 4.52087 3.16667 4.52087V6.14587ZM16.1667 8.85421C16.6154 8.85421 16.9792 9.21798 16.9792 9.66671C16.9792 10.1154 16.6154 10.4792 16.1667 10.4792V8.85421ZM8.58333 10.4792C8.1346 10.4792 7.77083 10.1154 7.77083 9.66671C7.77083 9.21798 8.1346 8.85421 8.58333 8.85421V10.4792ZM16.1667 1.81254H1V0.187541H16.1667V1.81254ZM16.1667 6.14587H3.16667V4.52087H16.1667V6.14587ZM16.1667 10.4792H8.58333V8.85421H16.1667V10.4792Z" fill="#A1A5B7"/>
</svg>
