<svg width="17" height="19" viewBox="0 0 17 19" fill="none" xmlns="http://www.w3.org/2000/svg">
<path fill-rule="evenodd" clip-rule="evenodd" d="M2.55213 9.6833C2.43006 6.34673 5.0307 3.54043 8.3669 3.40869C11.7031 3.54043 14.3037 6.34673 14.1817 9.6833C14.1817 11.0691 15.6875 12.4192 15.7316 13.8081C15.7316 13.8278 15.7316 13.8474 15.7316 13.8671C15.7642 14.757 15.0704 15.5054 14.1806 15.5402H10.8218C10.8249 16.2221 10.5679 16.8795 10.1031 17.3785C9.65623 17.8638 9.02662 18.1399 8.3669 18.1399C7.70718 18.1399 7.07757 17.8638 6.63068 17.3785C6.16589 16.8795 5.90887 16.2221 5.91199 15.5402H2.55213C1.66231 15.5054 0.968516 14.757 1.0011 13.8671C1.0011 13.8474 1.0011 13.8278 1.0011 13.8081C1.04635 12.4234 2.55213 11.0702 2.55213 9.6833Z" stroke="#A1A5B7" stroke-width="1.57839" stroke-linecap="round" stroke-linejoin="round"/>
<path d="M5.91257 14.7509C5.47671 14.7509 5.12338 15.1043 5.12338 15.5401C5.12338 15.976 5.47671 16.3293 5.91257 16.3293V14.7509ZM10.8224 16.3293C11.2583 16.3293 11.6116 15.976 11.6116 15.5401C11.6116 15.1043 11.2583 14.7509 10.8224 14.7509V16.3293ZM9.41915 2.09344C9.855 2.09344 10.2083 1.74011 10.2083 1.30425C10.2083 0.868387 9.855 0.515053 9.41915 0.515053V2.09344ZM7.31463 0.515053C6.87877 0.515053 6.52544 0.868387 6.52544 1.30425C6.52544 1.74011 6.87877 2.09344 7.31463 2.09344V0.515053ZM5.91257 16.3293H10.8224V14.7509H5.91257V16.3293ZM9.41915 0.515053H7.31463V2.09344H9.41915V0.515053Z" fill="#A1A5B7"/>
</svg>
