<svg width="39" height="40" viewBox="0 0 39 40" fill="none" xmlns="http://www.w3.org/2000/svg">
<path d="M26 26.5L19.5 20L13 26.5" stroke="#3699FF" stroke-width="1.18056" stroke-linecap="round" stroke-linejoin="round"/>
<path d="M19.5 20V34.625" stroke="#3699FF" stroke-width="1.18056" stroke-linecap="round" stroke-linejoin="round"/>
<path d="M33.1346 30.3834C34.7195 29.5194 35.9716 28.1521 36.6931 26.4974C37.4147 24.8428 37.5647 22.9949 37.1194 21.2455C36.6742 19.4962 35.659 17.9449 34.2342 16.8365C32.8094 15.7282 31.056 15.1259 29.2509 15.1247H27.2034C26.7115 13.2222 25.7947 11.456 24.522 9.95878C23.2493 8.4616 21.6537 7.27243 19.8553 6.48066C18.0568 5.68889 16.1022 5.31513 14.1385 5.38748C12.1748 5.45983 10.2531 5.97641 8.51776 6.89838C6.78244 7.82034 5.27871 9.12371 4.11961 10.7105C2.96052 12.2973 2.17622 14.1262 1.82569 16.0597C1.47516 17.9932 1.56752 19.981 2.09582 21.8737C2.62412 23.7664 3.57462 25.5147 4.87585 26.9872" stroke="#3699FF" stroke-width="1.18056" stroke-linecap="round" stroke-linejoin="round"/>
<path d="M26 26.5L19.5 20L13 26.5" stroke="#3699FF" stroke-width="1.18056" stroke-linecap="round" stroke-linejoin="round"/>
</svg>
