<svg width="21" height="21" viewBox="0 0 21 21" fill="none" xmlns="http://www.w3.org/2000/svg">
<path d="M5.31641 8.57534V6.898C5.31641 4.12199 6.15508 1.86597 10.3484 1.86597C14.5418 1.86597 15.3805 4.12199 15.3805 6.898V8.57534" stroke="#009EF7" stroke-width="1.25801" stroke-linecap="round" stroke-linejoin="round"/>
<path d="M10.3486 15.704C11.5066 15.704 12.4453 14.7653 12.4453 13.6074C12.4453 12.4494 11.5066 11.5107 10.3486 11.5107C9.19067 11.5107 8.25195 12.4494 8.25195 13.6074C8.25195 14.7653 9.19067 15.704 10.3486 15.704Z" stroke="#009EF7" stroke-width="1.25801" stroke-linecap="round" stroke-linejoin="round"/>
<path d="M14.542 18.6394H6.15527C2.80059 18.6394 1.96191 17.8007 1.96191 14.446V12.7687C1.96191 9.41399 2.80059 8.57532 6.15527 8.57532H14.542C17.8967 8.57532 18.7353 9.41399 18.7353 12.7687V14.446C18.7353 17.8007 17.8967 18.6394 14.542 18.6394Z" stroke="#009EF7" stroke-width="1.25801" stroke-linecap="round" stroke-linejoin="round"/>
</svg>
