<svg width="52" height="53" viewBox="0 0 52 53" fill="none" xmlns="http://www.w3.org/2000/svg">
<path d="M25.7164 51.5679C39.3793 51.5679 50.4552 40.2913 50.4552 26.3809C50.4552 12.4705 39.3793 1.19397 25.7164 1.19397C12.0535 1.19397 0.977539 12.4705 0.977539 26.3809C0.977539 40.2913 12.0535 51.5679 25.7164 51.5679Z" fill="#FFDC00" stroke="#1A1A18" stroke-width="0.205638" stroke-miterlimit="22.93"/>
<path fill-rule="evenodd" clip-rule="evenodd" d="M2.35426 23.5893L6.41212 20.0063L7.58113 19.0404L9.80285 22.4614H17.8635L20.6972 18.9283L21.5908 20.0935L24.0023 23.5893L20.7707 25.359L16.2966 32.7244L25.4773 51.5741L20.3851 51.0569L13.6098 36.3635L7.91775 44.0031L5.5369 41.2364L11.4309 32.4253L7.14657 25.3652H2.34814V23.5893H2.35426ZM11.8838 25.2904L14.3809 29.1102L16.6088 25.2904H11.8838Z" fill="#1A1A18"/>
<path fill-rule="evenodd" clip-rule="evenodd" d="M1.08671 23.4896H24.4607L26.9701 20.455L28.4267 27.8329L30.318 16.8907H33.929L34.9083 22.2185L40.1351 8.50958L44.7316 41.872C43.3546 43.6668 41.7397 45.2585 39.9332 46.6016L38.1827 32.5126L35.5448 40.1459H32.4479L30.9178 31.4221L29.3387 36.5567H26.9884L25.4644 24.3558L23.7446 25.546L0.896973 25.5834C0.958177 24.8855 1.0255 24.1875 1.08671 23.4896Z" fill="#E2000F"/>
<path fill-rule="evenodd" clip-rule="evenodd" d="M25.7097 52.1786C20.6982 52.1786 15.7993 50.6656 11.6324 47.8309C7.46544 44.9962 4.21772 40.9672 2.29989 36.2533C0.382073 31.5394 -0.119717 26.3524 0.85798 21.3481C1.83568 16.3439 4.24895 11.7472 7.79262 8.13933C11.3363 4.53147 15.8512 2.07449 20.7664 1.07908C25.6816 0.083673 30.7764 0.594552 35.4064 2.54711C40.0365 4.49967 43.9938 7.80622 46.7781 12.0486C49.5623 16.291 51.0484 21.2787 51.0484 26.381C51.0468 33.2224 48.3767 39.7832 43.6251 44.6208C38.8735 49.4585 32.4295 52.177 25.7097 52.1786ZM25.7097 50.976C30.4882 50.9784 35.1599 49.5381 39.1342 46.837C43.1085 44.136 46.2067 40.2956 48.037 35.8017C49.8673 31.3078 50.3474 26.3622 49.4167 21.5904C48.486 16.8186 46.1862 12.4351 42.8082 8.99414C39.4302 5.55322 35.1258 3.20954 30.4394 2.25953C25.753 1.30952 20.8951 1.79585 16.4802 3.65702C12.0653 5.51819 8.29169 8.67058 5.6367 12.7155C2.98171 16.7604 1.56459 21.516 1.56459 26.381C1.56621 32.9024 4.11104 39.1563 8.63976 43.7682C13.1685 48.3802 19.3105 50.9727 25.7159 50.976H25.7097Z" fill="white"/>
</svg>
