<svg width="35" height="31" viewBox="0 0 35 31" fill="none" xmlns="http://www.w3.org/2000/svg">
<path d="M25.4635 13.8067H31.8678C32.364 13.8067 32.8399 14.0055 33.1911 14.3595C33.5422 14.7135 33.74 15.1938 33.7408 15.6948V28.6307C33.7408 29.1323 33.5435 29.6134 33.1922 29.9681C32.8409 30.3228 32.3645 30.5221 31.8678 30.5221H2.50684C2.01008 30.5221 1.53366 30.3228 1.18239 29.9681C0.831128 29.6134 0.633789 29.1323 0.633789 28.6307V15.6948C0.633789 15.1932 0.831128 14.7121 1.18239 14.3574C1.53366 14.0027 2.01008 13.8035 2.50684 13.8035H8.91108" stroke="#A1A5B7" stroke-width="0.907364" stroke-miterlimit="10"/>
<path d="M25.4634 3.16887V17.7152H8.90987V3.16887C8.90987 2.59362 9.13617 2.04193 9.539 1.63516C9.94183 1.2284 10.4882 0.999878 11.0579 0.999878L23.3154 0.999878C23.8851 0.999878 24.4314 1.2284 24.8342 1.63516C25.2371 2.04193 25.4634 2.59362 25.4634 3.16887Z" stroke="#A1A5B7" stroke-width="0.907364" stroke-miterlimit="10"/>
<path d="M7.04444 29.4517C7.82028 29.4517 8.44922 28.8166 8.44922 28.0331C8.44922 27.2497 7.82028 26.6146 7.04444 26.6146C6.26859 26.6146 5.63965 27.2497 5.63965 28.0331C5.63965 28.8166 6.26859 29.4517 7.04444 29.4517Z" fill="#A1A5B7"/>
<path d="M3.23975 29.4517C4.01559 29.4517 4.64454 28.8166 4.64454 28.0331C4.64454 27.2497 4.01559 26.6146 3.23975 26.6146C2.46391 26.6146 1.83496 27.2497 1.83496 28.0331C1.83496 28.8166 2.46391 29.4517 3.23975 29.4517Z" fill="#A1A5B7"/>
<path d="M25.4628 16.2925H27.2962C27.483 16.2925 27.6622 16.3674 27.7943 16.5009C27.9265 16.6343 28.0007 16.8152 28.0007 17.0039C28.0007 17.1926 27.9265 17.3735 27.7943 17.507C27.6622 17.6404 27.483 17.7153 27.2962 17.7153H7.0771C6.89024 17.7153 6.71104 17.6404 6.57891 17.507C6.44679 17.3735 6.37256 17.1926 6.37256 17.0039C6.37256 16.8152 6.44679 16.6343 6.57891 16.5009C6.71104 16.3674 6.89024 16.2925 7.0771 16.2925H8.90934" stroke="#A1A5B7" stroke-width="1.79085" stroke-miterlimit="10"/>
<path d="M22.8848 3.44751V14.8683" stroke="#A1A5B7" stroke-width="0.907364" stroke-miterlimit="10"/>
<path d="M20.0352 3.44751V14.8683" stroke="#A1A5B7" stroke-width="0.907364" stroke-miterlimit="10"/>
<path d="M17.187 3.44751V9.35693" stroke="#A1A5B7" stroke-width="0.907364" stroke-miterlimit="10"/>
</svg>
