<svg width="37" height="29" viewBox="0 0 37 29" fill="none" xmlns="http://www.w3.org/2000/svg">
<path d="M20.7884 10.7782H33.6812C34.1963 10.7782 34.6903 10.9829 35.0545 11.3474C35.4187 11.7118 35.6233 12.2061 35.6233 12.7216V26.0122C35.6233 26.5276 35.4187 27.0219 35.0545 27.3864C34.6903 27.7508 34.1963 27.9556 33.6812 27.9556H3.23362C2.71854 27.9556 2.22456 27.7508 1.86034 27.3864C1.49612 27.0219 1.2915 26.5276 1.2915 26.0122V12.7216C1.2915 12.2061 1.49612 11.7118 1.86034 11.3474C2.22456 10.9829 2.71854 10.7782 3.23362 10.7782H16.4002" stroke="#A1A5B7" stroke-width="0.907364" stroke-miterlimit="10"/>
<path d="M27.2298 4.20309L25.1699 2.14185L16.4647 10.8527L18.5246 12.9139L27.2298 4.20309Z" stroke="#A1A5B7" stroke-width="0.907364" stroke-miterlimit="10"/>
<path d="M28.2766 1.09521C28.4204 1.23904 28.5344 1.40978 28.6122 1.5977C28.69 1.78561 28.73 1.98702 28.73 2.19042C28.73 2.39382 28.69 2.59523 28.6122 2.78314C28.5344 2.97106 28.4204 3.14181 28.2766 3.28563L27.2947 4.26816L25.1057 2.07774L26.0883 1.09452C26.3787 0.804356 26.7723 0.64143 27.1826 0.641559C27.593 0.641688 27.9865 0.804862 28.2766 1.09521Z" fill="#A1A5B7"/>
<path d="M18.5994 12.982C17.5216 14.0605 16.5855 14.6766 15.8397 15.0225C15.7096 15.0837 15.5862 15.1362 15.4687 15.1819C14.4851 15.5618 13.9199 15.4539 13.9199 15.4539C13.9199 15.4539 13.8121 14.8884 14.1918 13.9051C14.3143 13.5927 14.4607 13.2902 14.6297 13.0004C15.1177 12.1861 15.7099 11.4391 16.3912 10.7782L16.465 10.852L17.4944 11.882L18.5994 12.982Z" stroke="#A1A5B7" stroke-width="0.907364" stroke-miterlimit="10"/>
<path d="M25.3451 1.84157L25.28 1.77744C25.2384 1.73569 25.189 1.70257 25.1346 1.67997C25.0802 1.65736 25.0219 1.64573 24.9629 1.64573C24.904 1.64573 24.8457 1.65736 24.7913 1.67997C24.7369 1.70257 24.6875 1.73569 24.6459 1.77744L21.3171 5.11128L20.8364 4.62544L24.1652 1.29646C24.3769 1.08504 24.6638 0.966309 24.9629 0.966309C25.2621 0.966309 25.5489 1.08504 25.7607 1.29646L25.8257 1.36059L25.3451 1.84157Z" fill="#A1A5B7"/>
<path d="M14.1924 13.9109L15.4887 15.2081" stroke="#A1A5B7" stroke-width="1.79085" stroke-miterlimit="10"/>
<path d="M4.77588 14.5599H13.9058" stroke="#A1A5B7" stroke-width="0.907364" stroke-miterlimit="10"/>
<path d="M16.6953 14.5599H25.8252" stroke="#A1A5B7" stroke-width="0.907364" stroke-miterlimit="10"/>
<path d="M4.77588 16.9347H25.8255" stroke="#A1A5B7" stroke-width="0.907364" stroke-miterlimit="10"/>
<path d="M4.77588 19.3669H18.4581" stroke="#A1A5B7" stroke-width="0.907364" stroke-miterlimit="10"/>
<path d="M15.4687 15.1887C14.4851 15.5686 13.9199 15.4607 13.9199 15.4607C13.9199 15.4607 13.8121 14.8952 14.1918 13.9119L15.4687 15.1887Z" fill="#A1A5B7"/>
</svg>
