<svg width="38" height="39" viewBox="0 0 38 39" fill="none" xmlns="http://www.w3.org/2000/svg">
<path d="M26.7025 8.90344L31.3267 10.4807C31.5513 10.5576 31.7366 10.7208 31.8416 10.9344C31.9467 11.148 31.963 11.3946 31.8869 11.6201L24.7478 32.7652C24.7103 32.8769 24.6511 32.98 24.5737 33.0687C24.4963 33.1574 24.4023 33.2299 24.2969 33.2821C24.1915 33.3342 24.0769 33.365 23.9596 33.3727C23.8423 33.3803 23.7246 33.3647 23.6133 33.3267L6.77179 27.5873C6.547 27.5102 6.36175 27.3469 6.25667 27.1331C6.1516 26.9193 6.13529 26.6725 6.21134 26.4469L13.342 5.29453C13.4183 5.0692 13.5807 4.88359 13.7934 4.77849C14.0062 4.67338 14.252 4.65737 14.4767 4.73397L19.1009 6.31125" stroke="#A1A5B7" stroke-width="0.854304" stroke-miterlimit="10"/>
<path d="M27.072 7.7939L31.9919 9.47119C32.4476 9.62666 32.8234 9.95731 33.0365 10.3904C33.2497 10.8235 33.2828 11.3236 33.1285 11.7806L25.5874 34.1168C25.4331 34.5738 25.1041 34.9504 24.6727 35.1636C24.2414 35.3769 23.743 35.4094 23.2873 35.254L5.85738 29.3089C5.40205 29.1532 5.0267 28.8226 4.8138 28.3897C4.60089 27.9568 4.56785 27.4571 4.72194 27.0003L12.2609 4.66357C12.3373 4.43738 12.4574 4.22857 12.6143 4.04906C12.7712 3.86955 12.9619 3.72286 13.1754 3.61737C13.3889 3.51188 13.6211 3.44964 13.8587 3.43422C14.0963 3.41881 14.3347 3.4505 14.5602 3.52751L19.4791 5.20499" stroke="#A1A5B7" stroke-width="0.854304" stroke-miterlimit="10"/>
<path d="M21.692 4.75639L25.5866 6.08476C26.0772 6.25208 26.4817 6.60801 26.7112 7.07423C26.9407 7.54045 26.9763 8.07877 26.8102 8.57078L26.431 9.69405L18.837 7.10388L19.2161 5.98061C19.3822 5.4886 19.7363 5.08321 20.2007 4.85363C20.665 4.62404 21.2014 4.58907 21.692 4.75639Z" fill="#A1A5B7"/>
<path d="M14.5342 10.2616L27.9006 14.8205" stroke="#A1A5B7" stroke-width="0.854304" stroke-miterlimit="10"/>
<path d="M13.6494 12.8824L27.016 17.4423" stroke="#A1A5B7" stroke-width="0.854304" stroke-miterlimit="10"/>
<path d="M12.7642 15.5044L22.0499 18.6715" stroke="#A1A5B7" stroke-width="0.854304" stroke-miterlimit="10"/>
</svg>
