<svg width="23" height="29" viewBox="0 0 23 29" fill="none" xmlns="http://www.w3.org/2000/svg">
<path d="M21.1687 25.1543H2.13672V28.2727H21.1687V25.1543Z" fill="#A1A5B7"/>
<path d="M3.03019 20.6284H20.2744C20.826 20.6284 21.3551 20.8474 21.7452 21.2373C22.1352 21.6272 22.3544 22.156 22.3544 22.7073V25.1542H0.950195V22.7073C0.950195 22.156 1.16934 21.6272 1.55941 21.2373C1.94949 20.8474 2.47854 20.6284 3.03019 20.6284Z" stroke="#A1A5B7" stroke-width="0.904841" stroke-miterlimit="10"/>
<path d="M10.0924 16.4706C10.0893 15.7678 9.90929 15.0771 9.56907 14.4621C9.22886 13.847 8.73933 13.3274 8.14553 12.951C6.96454 12.1936 6.06083 11.0741 5.56975 9.76034C5.07868 8.44654 5.02668 7.00909 5.42153 5.66328C5.81639 4.31746 6.63685 3.13572 7.76003 2.29504C8.88321 1.45436 10.2487 1 11.6519 1C13.0551 1 14.4206 1.45436 15.5437 2.29504C16.6669 3.13572 17.4874 4.31746 17.8822 5.66328C18.2771 7.00909 18.2251 8.44654 17.734 9.76034C17.2429 11.0741 16.3392 12.1936 15.1582 12.951C14.5646 13.3274 14.0752 13.8471 13.7352 14.4622C13.3951 15.0772 13.2153 15.7679 13.2124 16.4706V20.6284H10.0924V16.4706Z" stroke="#A1A5B7" stroke-width="0.904841" stroke-miterlimit="10"/>
</svg>
