<svg width="24" height="33" viewBox="0 0 24 33" fill="none" xmlns="http://www.w3.org/2000/svg">
<path d="M19.1385 1.16697C17.6642 0.305667 15.9706 -0.0939601 14.2718 0.0186284C12.5731 0.131217 10.9454 0.750965 9.59481 1.7995C8.24417 2.84803 7.23117 4.27826 6.68391 5.90931C6.13665 7.54036 6.07972 9.29898 6.5203 10.9628C6.96089 12.6266 7.87921 14.1208 9.15913 15.2565C10.4391 16.3922 12.0231 17.1184 13.7109 17.3433C15.3988 17.5681 17.1146 17.2815 18.6414 16.5196C20.1683 15.7578 21.4375 14.555 22.2887 13.0632C23.4301 11.063 23.7394 8.68596 23.1486 6.455C22.5578 4.22404 21.1153 2.32189 19.1385 1.16697ZM20.9741 12.3006C20.2723 13.5282 19.2266 14.5178 17.9692 15.1442C16.7117 15.7706 15.2989 16.0058 13.9094 15.8199C12.5198 15.6341 11.2159 15.0356 10.1625 14.1002C9.10905 13.1647 8.35337 11.9342 7.99096 10.5643C7.62856 9.19439 7.67569 7.7465 8.12641 6.40368C8.57714 5.06085 9.41121 3.88337 10.5232 3.02007C11.6352 2.15677 12.9752 1.64641 14.3738 1.5535C15.7724 1.46059 17.1669 1.7893 18.3809 2.49809C20.0087 3.44953 21.1964 5.01622 21.6827 6.85357C22.169 8.69092 21.9141 10.6485 20.9741 12.2957V12.3006Z" fill="#A1A5B7"/>
<path d="M6.87061 19.7084L9.4006 21.1863L3.91862 30.7933C3.72492 31.1328 3.40587 31.3805 3.03167 31.4819C2.65747 31.5834 2.25877 31.5303 1.92327 31.3343C1.58777 31.1383 1.34296 30.8155 1.24269 30.4369C1.14243 30.0583 1.19492 29.6549 1.38862 29.3154L6.87061 19.7084Z" stroke="#A1A5B7" stroke-width="0.907364" stroke-miterlimit="10"/>
<path d="M11.2735 16.6848L9.7876 15.8168L7.39401 20.0115L8.87996 20.8795L11.2735 16.6848Z" stroke="#A1A5B7" stroke-width="0.907364" stroke-miterlimit="10"/>
</svg>
